HIERARCHY
ROOT Root
{
  OFFSET 0.0 0.0 0.0
  CHANNELS 6 Xposition Yposition Zposition Zrotation Yrotation Xrotation
  JOINT Hips
  {
    OFFSET 0.0 100.0 0.0
    CHANNELS 6 Xposition Yposition Zposition Zrotation Yrotation Xrotation
    JOINT Spine1
    {
      OFFSET -0.013727 5.003763 -0.053727
      CHANNELS 3 Zrotation Yrotation Xrotation
      JOINT Spine2
      {
        OFFSET -0.0 7.125301 -0.029825
        CHANNELS 3 Zrotation Yrotation Xrotation
        JOINT Chest
        {
          OFFSET -1e-06 7.550063 -0.815971
          CHANNELS 3 Zrotation Yrotation Xrotation
          JOINT Neck1
          {
            OFFSET -0.181677 26.311295 -0.553348
            CHANNELS 3 Zrotation Yrotation Xrotation
            JOINT Neck2
            {
              OFFSET -3e-06 7.709397 2.302585
              CHANNELS 3 Zrotation Yrotation Xrotation
              JOINT Head
              {
                OFFSET -5e-06 6.128916 1.953709
                CHANNELS 3 Zrotation Yrotation Xrotation
                JOINT HeadEnd
                {
                  OFFSET 0.003598 16.065403 -1.835379
                  CHANNELS 3 Zrotation Yrotation Xrotation
                }
                JOINT Jaw
                {
                  OFFSET 0.002637 0.475592 3.094941
                  CHANNELS 3 Zrotation Yrotation Xrotation
                }
                JOINT LeftEye
                {
                  OFFSET 3.206381 5.380205 7.586883
                  CHANNELS 3 Zrotation Yrotation Xrotation
                }
                JOINT RightEye
                {
                  OFFSET -3.22244 5.361869 7.558234
                  CHANNELS 3 Zrotation Yrotation Xrotation
                }
              }
            }
          }
          JOINT LeftShoulder
          {
            OFFSET 1.621652 23.237164 5.113413
            CHANNELS 3 Zrotation Yrotation Xrotation
            JOINT LeftArm
            {
              OFFSET 14.919846 2e-06 -5.502326
              CHANNELS 3 Zrotation Yrotation Xrotation
              JOINT LeftForeArm
              {
                OFFSET 28.739307 0.0 -0.002588
                CHANNELS 3 Zrotation Yrotation Xrotation
                JOINT LeftHand
                {
                  OFFSET 27.093981 -1e-06 0.002609
                  CHANNELS 3 Zrotation Yrotation Xrotation
                  JOINT LeftHandThumb1
                  {
                    OFFSET 2.276482 -1.392045 3.191413
                    CHANNELS 3 Zrotation Yrotation Xrotation
                    JOINT LeftHandThumb2
                    {
                      OFFSET 4.012836 -1.828127 1.641654
                      CHANNELS 3 Zrotation Yrotation Xrotation
                      JOINT LeftHandThumb3
                      {
                        OFFSET 2.798515 0.0 -3e-06
                        CHANNELS 3 Zrotation Yrotation Xrotation
                        JOINT LeftHandThumbEnd
                        {
                          OFFSET 3.180793 -4e-06 4e-06
                          CHANNELS 3 Zrotation Yrotation Xrotation
                        }
                      }
                    }
                  }
                  JOINT LeftHandIndex1
                  {
                    OFFSET 3.247555 -0.531998 2.296169
                    CHANNELS 3 Zrotation Yrotation Xrotation
                    JOINT LeftHandIndex2
                    {
                      OFFSET 6.364578 0.01206 0.1786
                      CHANNELS 3 Zrotation Yrotation Xrotation
                      JOINT LeftHandIndex3
                      {
                        OFFSET 3.662364 0.0 0.0
                        CHANNELS 3 Zrotation Yrotation Xrotation
                        JOINT LeftHandIndex4
                        {
                          OFFSET 2.329242 4e-06 4e-06
                          CHANNELS 3 Zrotation Yrotation Xrotation
                          JOINT LeftHandIndexEnd
                          {
                            OFFSET 2.759615 -0.180537 -0.113024
                            CHANNELS 3 Zrotation Yrotation Xrotation
                          }
                        }
                      }
                    }
                  }
                  JOINT LeftHandMiddle1
                  {
                    OFFSET 3.163495 0.240981 1.000332
                    CHANNELS 3 Zrotation Yrotation Xrotation
                    JOINT LeftHandMiddle2
                    {
                      OFFSET 6.19078 -0.259278 -1.002548
                      CHANNELS 3 Zrotation Yrotation Xrotation
                      JOINT LeftHandMiddle3
                      {
                        OFFSET 4.35652 -4e-06 -1e-06
                        CHANNELS 3 Zrotation Yrotation Xrotation
                        JOINT LeftHandMiddle4
                        {
                          OFFSET 2.996877 -8e-06 0.0
                          CHANNELS 3 Zrotation Yrotation Xrotation
                          JOINT LeftHandMiddleEnd
                          {
                            OFFSET 2.304287 -0.294569 -0.031741
                            CHANNELS 3 Zrotation Yrotation Xrotation
                          }
                        }
                      }
                    }
                  }
                  JOINT LeftHandRing1
                  {
                    OFFSET 2.882643 -0.053652 -0.322543
                    CHANNELS 3 Zrotation Yrotation Xrotation
                    JOINT LeftHandRing2
                    {
                      OFFSET 5.854541 -0.486202 -1.373841
                      CHANNELS 3 Zrotation Yrotation Xrotation
                      JOINT LeftHandRing3
                      {
                        OFFSET 4.350578 0.0 3e-06
                        CHANNELS 3 Zrotation Yrotation Xrotation
                        JOINT LeftHandRing4
                        {
                          OFFSET 2.651321 7e-06 2e-06
                          CHANNELS 3 Zrotation Yrotation Xrotation
                          JOINT LeftHandRingEnd
                          {
                            OFFSET 1.936105 0.077687 -7.1e-05
                            CHANNELS 3 Zrotation Yrotation Xrotation
                          }
                        }
                      }
                    }
                  }
                  JOINT LeftHandPinky1
                  {
                    OFFSET 2.8655 -0.310005 -1.600378
                    CHANNELS 3 Zrotation Yrotation Xrotation
                    JOINT LeftHandPinky2
                    {
                      OFFSET 5.087849 -1.331141 -1.77123
                      CHANNELS 3 Zrotation Yrotation Xrotation
                      JOINT LeftHandPinky3
                      {
                        OFFSET 3.070974 4e-06 0.0
                        CHANNELS 3 Zrotation Yrotation Xrotation
                        JOINT LeftHandPinky4
                        {
                          OFFSET 1.549672 0.0 1e-06
                          CHANNELS 3 Zrotation Yrotation Xrotation
                          JOINT LeftHandPinkyEnd
                          {
                            OFFSET 1.944893 -0.157802 0.057219
                            CHANNELS 3 Zrotation Yrotation Xrotation
                          }
                        }
                      }
                    }
                  }
                }
              }
            }
          }
          JOINT RightShoulder
          {
            OFFSET -1.380118 23.180309 5.214158
            CHANNELS 3 Zrotation Yrotation Xrotation
            JOINT RightArm
            {
              OFFSET -15.037196 1.2e-05 -5.545604
              CHANNELS 3 Zrotation Yrotation Xrotation
              JOINT RightForeArm
              {
                OFFSET -28.736639 2e-06 -0.002597
                CHANNELS 3 Zrotation Yrotation Xrotation
                JOINT RightHand
                {
                  OFFSET -27.133619 -0.0 0.002613
                  CHANNELS 3 Zrotation Yrotation Xrotation
                  JOINT RightHandThumb1
                  {
                    OFFSET -2.274032 -1.383988 3.163127
                    CHANNELS 3 Zrotation Yrotation Xrotation
                    JOINT RightHandThumb2
                    {
                      OFFSET -4.011429 -1.827466 1.640914
                      CHANNELS 3 Zrotation Yrotation Xrotation
                      JOINT RightHandThumb3
                      {
                        OFFSET -2.794935 -4e-06 -3e-06
                        CHANNELS 3 Zrotation Yrotation Xrotation
                        JOINT RightHandThumbEnd
                        {
                          OFFSET -3.183852 4e-06 1e-06
                          CHANNELS 3 Zrotation Yrotation Xrotation
                        }
                      }
                    }
                  }
                  JOINT RightHandIndex1
                  {
                    OFFSET -3.253266 -0.520057 2.282866
                    CHANNELS 3 Zrotation Yrotation Xrotation
                    JOINT RightHandIndex2
                    {
                      OFFSET -6.341917 0.012471 0.178266
                      CHANNELS 3 Zrotation Yrotation Xrotation
                      JOINT RightHandIndex3
                      {
                        OFFSET -3.654871 -8e-06 -0.0
                        CHANNELS 3 Zrotation Yrotation Xrotation
                        JOINT RightHandIndex4
                        {
                          OFFSET -2.327586 0.0 1e-06
                          CHANNELS 3 Zrotation Yrotation Xrotation
                          JOINT RightHandIndexEnd
                          {
                            OFFSET -2.76179 -0.180656 -0.113078
                            CHANNELS 3 Zrotation Yrotation Xrotation
                          }
                        }
                      }
                    }
                  }
                  JOINT RightHandMiddle1
                  {
                    OFFSET -3.168106 0.246593 1.00103
                    CHANNELS 3 Zrotation Yrotation Xrotation
                    JOINT RightHandMiddle2
                    {
                      OFFSET -6.180828 -0.258836 -1.000895
                      CHANNELS 3 Zrotation Yrotation Xrotation
                      JOINT RightHandMiddle3
                      {
                        OFFSET -4.348901 0.0 -0.0
                        CHANNELS 3 Zrotation Yrotation Xrotation
                        JOINT RightHandMiddle4
                        {
                          OFFSET -3.00024 -4e-06 -2e-06
                          CHANNELS 3 Zrotation Yrotation Xrotation
                          JOINT RightHandMiddleEnd
                          {
                            OFFSET -2.30252 -0.29437 -0.031706
                            CHANNELS 3 Zrotation Yrotation Xrotation
                          }
                        }
                      }
                    }
                  }
                  JOINT RightHandRing1
                  {
                    OFFSET -2.88569 -0.067952 -0.308858
                    CHANNELS 3 Zrotation Yrotation Xrotation
                    JOINT RightHandRing2
                    {
                      OFFSET -5.854198 -0.48613 -1.373731
                      CHANNELS 3 Zrotation Yrotation Xrotation
                      JOINT RightHandRing3
                      {
                        OFFSET -4.33881 -4e-06 -0.0
                        CHANNELS 3 Zrotation Yrotation Xrotation
                        JOINT RightHandRing4
                        {
                          OFFSET -2.654903 -4e-06 4e-06
                          CHANNELS 3 Zrotation Yrotation Xrotation
                          JOINT RightHandRingEnd
                          {
                            OFFSET -1.933568 0.077527 -5.2e-05
                            CHANNELS 3 Zrotation Yrotation Xrotation
                          }
                        }
                      }
                    }
                  }
                  JOINT RightHandPinky1
                  {
                    OFFSET -2.866425 -0.342796 -1.584145
                    CHANNELS 3 Zrotation Yrotation Xrotation
                    JOINT RightHandPinky2
                    {
                      OFFSET -5.091371 -1.332055 -1.772385
                      CHANNELS 3 Zrotation Yrotation Xrotation
                      JOINT RightHandPinky3
                      {
                        OFFSET -3.062664 -4e-06 1e-06
                        CHANNELS 3 Zrotation Yrotation Xrotation
                        JOINT RightHandPinky4
                        {
                          OFFSET -1.546529 4e-06 -2e-06
                          CHANNELS 3 Zrotation Yrotation Xrotation
                          JOINT RightHandPinkyEnd
                          {
                            OFFSET -1.945119 -0.157718 0.057211
                            CHANNELS 3 Zrotation Yrotation Xrotation
                          }
                        }
                      }
                    }
                  }
                }
              }
            }
          }
        }
      }
    }
    JOINT LeftLeg
    {
      OFFSET 10.043214 -8.434526 2.595655
      CHANNELS 3 Zrotation Yrotation Xrotation
      JOINT LeftShin
      {
        OFFSET -1e-06 -43.221752 -0.802913
        CHANNELS 3 Zrotation Yrotation Xrotation
        JOINT LeftFoot
        {
          OFFSET 1e-06 -42.155094 -3.481523
          CHANNELS 3 Zrotation Yrotation Xrotation
          JOINT LeftToeBase
          {
            OFFSET 0.0 -5.059472 13.231529
            CHANNELS 3 Zrotation Yrotation Xrotation
            JOINT LeftToeEnd
            {
              OFFSET -0.009607 -1.647619 6.513017
              CHANNELS 3 Zrotation Yrotation Xrotation
            }
          }
        }
      }
    }
    JOINT RightLeg
    {
      OFFSET -10.047278 -8.29526 2.620317
      CHANNELS 3 Zrotation Yrotation Xrotation
      JOINT RightShin
      {
        OFFSET 1e-06 -43.362206 -0.805556
        CHANNELS 3 Zrotation Yrotation Xrotation
        JOINT RightFoot
        {
          OFFSET 2e-06 -42.117393 -3.478398
          CHANNELS 3 Zrotation Yrotation Xrotation
          JOINT RightToeBase
          {
            OFFSET -0.0 -5.079609 13.284196
            CHANNELS 3 Zrotation Yrotation Xrotation
            JOINT RightToeEnd
            {
              OFFSET 0.009532 -1.634378 6.460591
              CHANNELS 3 Zrotation Yrotation Xrotation
            }
          }
        }
      }
    }
  }
}
MOTION
Frames: 4
Frame Time: 0.03333333333333333
0.0 0.0 0.0 0.0 -0.0 0.0 0.137749 99.324203 -1.289462 0.014045 0.144105 -3.681715 0.556128 -0.045981 2.477226 -0.396797 0.078713 -3.851676 -0.316727 -2.052087 5.021329 -2.769614 4.40782 9.912589 -0.301868 1.363357 -3.673018 1.853642 0.264963 -11.051103 7.7e-05 -2.2e-05 6e-06 0.028758 -0.007989 0.039882 0.690083 -3.758444 -10.547622 -0.635859 3.752893 -10.557399 -6.846667 -5.792605 10.47684 -70.487579 2.169388 5.760892 0.148278 -29.035633 0.01713 -3.078379 1.968943 -5.778446 -5.882107 9.861285 0.702589 -10.936873 -0.360576 7.156204 1e-06 8.774826 -2e-06 -16.030531 17.742746 6.10429 -1.844033 2.498505 -2.507278 -10.163602 4.678945 4.621108 -20.976028 -5e-06 1e-06 -21.226294 2.451695 -3.593999 1e-06 -6e-06 -0.0 -1.362682 2.240798 -0.746323 -21.334917 0.584908 3.008323 -13.821215 -3e-06 1e-06 -23.887175 -0.24908 -0.839483 -60.43861 2.697123 -1.217562 -0.294025 1.679687 0.833256 -14.218213 0.093214 1.300579 -34.212063 -0.287565 0.967169 -20.033218 0.964536 1.212845 1e-06 -1e-06 -1e-06 -3.440389 0.788234 0.501655 -15.928189 -3.167311 2.999707 -6.338827 -2e-06 0.0 -18.123449 3.648181 -4.905673 -4e-06 0.0 -2e-06 7.214145 10.625947 11.862885 69.607475 2.773555 9.526885 0.484998 22.203388 0.108373 0.85133 -2.113056 -8.018802 2.243542 -5.255036 -3.180158 14.282896 -0.826595 6.952504 -3e-06 -12.690604 0.0 16.117407 -17.729893 2.704705 1.665666 -1.955921 -2.878299 4.727799 -4.170588 4.993924 11.020528 3e-06 -3e-06 12.109053 -3.735716 -2.866781 0.0 -0.0 0.0 1.291986 -1.92855 -1.498089 14.800132 0.567468 3.865608 14.242577 -1.341735 -6.660658 19.631973 0.143926 -0.648245 49.551952 -0.338327 -6.419276 0.35303 -1.511151 -0.03194 20.222797 3.684309 2.316628 18.787279 6e-06 -3e-06 10.751629 -0.479868 1.397906 -1e-06 -1e-06 2e-06 3.273807 0.305947 -0.580111 21.486818 11.830376 2.266133 8.16293 3e-06 -1e-06 18.399084 -3.798983 -4.940575 3e-06 0.0 -2e-06 2.328978 12.787962 2.511843 -0.073409 0.01673 12.094283 -4.411276 6.105851 -10.816381 1.682923 -1.967232 -2.352858 0.0 -1e-06 2e-06 -2.012622 -2.334825 -1.036757 -0.054173 -0.027312 14.744379 3.550572 -5.577772 -10.052773 -1.42218 1.014852 -1.759603 -0.0 -0.0 -1e-06 
0.0 0.0 0.0 0.0 -0.0 0.0 0.164785 99.336227 -1.267124 0.002748 0.173672 -3.709912 0.585832 -0.058565 2.451461 -0.369717 0.171349 -3.871671 -0.385 -2.107675 5.025011 -2.808539 4.497526 9.996693 -0.32451 1.316437 -3.647697 1.805747 0.205506 -11.066571 7.7e-05 -2.3e-05 6e-06 0.02623 0.02276 0.037627 0.684928 -3.728333 -10.545692 -0.63584 3.784266 -10.555406 -6.905275 -5.718767 10.49051 -70.56485 2.335231 5.451177 0.027219 -29.227274 0.039346 -3.097763 1.917321 -5.442183 -5.882109 9.861291 0.702591 -10.936875 -0.360575 7.156206 -1e-06 8.77483 -1e-06 -15.991882 17.72308 6.110411 -1.844033 2.498506 -2.507278 -10.163603 4.678947 4.621108 -20.97603 -2e-06 1e-06 -21.226295 2.451699 -3.594004 1e-06 -5e-06 -0.0 -1.362682 2.240799 -0.746323 -21.334917 0.584911 3.008323 -13.821217 -1e-06 1e-06 -23.887177 -0.249078 -0.839484 -60.367386 2.704243 -1.133955 -0.294025 1.679688 0.833256 -14.218214 0.093216 1.30058 -34.212063 -0.287563 0.96717 -20.033218 0.964536 1.212844 1e-06 -0.0 -2e-06 -3.440389 0.788234 0.501656 -15.928191 -3.16731 2.999707 -6.338828 -2e-06 0.0 -18.123457 3.648185 -4.905674 -4e-06 -0.0 0.0 7.17451 10.610595 11.898497 69.556122 2.616775 9.170526 0.441849 22.127813 0.087213 0.895179 -2.194929 -8.268111 2.243541 -5.255038 -3.180158 14.282894 -0.826595 6.952505 -2e-06 -12.690609 1e-06 16.141726 -17.747606 2.703841 1.665666 -1.955922 -2.878299 4.727799 -4.170589 4.993925 11.020527 2e-06 -2e-06 12.109053 -3.735717 -2.866784 1e-06 0.0 0.0 1.291986 -1.928549 -1.498089 14.800132 0.567467 3.865609 14.242576 -1.341737 -6.660657 19.631975 0.143926 -0.648244 49.661472 -0.318919 -6.404385 0.353029 -1.511151 -0.031941 20.222797 3.684309 2.316631 18.787279 4e-06 1e-06 10.751631 -0.479869 1.397906 -1e-06 -0.0 1e-06 3.273807 0.305947 -0.58011 21.486818 11.830378 2.266135 8.16293 2e-06 0.0 18.399088 -3.798987 -4.940577 3e-06 0.0 0.0 2.326414 12.754097 2.622335 -0.083042 -0.029312 11.952916 -4.458918 6.137316 -10.77218 1.68777 -2.005923 -2.38798 0.0 -0.0 2e-06 -1.990754 -2.251451 -0.923014 -0.067382 -0.024552 14.582775 3.526394 -5.684552 -9.988495 -1.426268 0.988649 -1.789766 0.0 0.0 -1e-06 
0.0 0.0 0.0 0.0 -0.0 0.0 0.171957 99.330971 -1.24994 0.008874 0.195622 -3.749862 0.604493 -0.069345 2.412158 -0.350659 0.217125 -3.896352 -0.441825 -2.107854 5.082336 -2.859232 4.582638 10.094415 -0.324108 1.249849 -3.669526 1.78121 0.141553 -11.038585 7.7e-05 -2.2e-05 6e-06 0.026037 0.032995 0.036314 0.680733 -3.71709 -10.558197 -0.632079 3.793128 -10.563606 -7.028462 -5.648729 10.485252 -70.581627 2.480021 5.232991 -0.091832 -29.426702 0.055715 -3.027867 1.931312 -5.297265 -5.882106 9.861284 0.70259 -10.93687 -0.360575 7.156205 1e-06 8.774823 0.0 -15.985795 17.725748 6.100231 -1.844033 2.498505 -2.507278 -10.1636 4.678944 4.621109 -20.976025 -4e-06 -0.0 -21.226288 2.451695 -3.594002 1e-06 -5e-06 -0.0 -1.362681 2.240798 -0.746325 -21.334913 0.58491 3.008321 -13.821213 -2e-06 1e-06 -23.887171 -0.24908 -0.839484 -60.318794 2.706025 -1.155382 -0.294025 1.679688 0.833256 -14.218208 0.093215 1.30058 -34.212051 -0.287565 0.967168 -20.033215 0.964536 1.212843 1e-06 -1e-06 -0.0 -3.440388 0.788233 0.501655 -15.928185 -3.167308 2.999706 -6.338826 -1e-06 2e-06 -18.123446 3.648181 -4.905671 -4e-06 0.0 -1e-06 7.196743 10.565907 11.953539 69.450722 2.519035 8.869011 0.42947 22.114378 0.069314 0.855534 -2.213057 -8.4355 2.243541 -5.255037 -3.180157 14.282889 -0.826595 6.952502 -2e-06 -12.690607 2e-06 16.156408 -17.725723 2.704958 1.665665 -1.955922 -2.878299 4.727798 -4.170589 4.993924 11.020525 2e-06 -2e-06 12.109052 -3.735719 -2.866785 1e-06 -0.0 -0.0 1.291985 -1.92855 -1.498089 14.800125 0.567467 3.865608 14.242568 -1.341739 -6.660656 19.631962 0.143924 -0.648244 49.691616 -0.314902 -6.412149 0.353029 -1.511151 -0.031939 20.222786 3.684309 2.316631 18.78727 3e-06 1e-06 10.751625 -0.47987 1.397906 -2e-06 0.0 1e-06 3.273806 0.305947 -0.580112 21.486809 11.830376 2.266135 8.162928 3e-06 1e-06 18.399078 -3.798988 -4.940577 2e-06 1e-06 -2e-06 2.313314 12.693396 2.675837 -0.08502 -0.057871 11.947674 -4.471694 6.139383 -10.787881 1.690927 -2.021909 -2.344151 0.0 -0.0 2e-06 -2.003199 -2.184058 -0.875238 -0.06719 -0.03485 14.593816 3.562766 -5.784389 -10.014258 -1.427225 0.982057 -1.782439 -0.0 -0.0 -1e-06 
0.0 0.0 0.0 0.0 -0.0 0.0 0.171553 99.321892 -1.241914 0.01692 0.211408 -3.794486 0.61124 -0.077902 2.378604 -0.335344 0.238696 -3.917059 -0.483342 -2.07132 5.148359 -2.923718 4.635939 10.192785 -0.317493 1.215703 -3.700257 1.774325 0.079896 -11.028424 7.7e-05 -2.3e-05 6e-06 0.025738 0.034812 0.037742 0.678174 -3.71362 -10.570489 -0.630141 3.792673 -10.572469 -7.176828 -5.586245 10.494553 -70.54747 2.546184 5.229029 -0.144379 -29.571918 0.074225 -2.913681 1.955404 -5.196596 -5.882111 9.861292 0.70259 -10.936879 -0.360575 7.15621 1e-06 8.774831 -1e-06 -15.995334 17.70723 6.094069 -1.844034 2.498505 -2.50728 -10.163607 4.678948 4.621111 -20.976042 -4e-06 2e-06 -21.226301 2.451698 -3.594003 1e-06 -6e-06 -0.0 -1.362683 2.240801 -0.746324 -21.334932 0.584909 3.008324 -13.821223 -4e-06 1e-06 -23.887192 -0.24908 -0.839483 -60.305611 2.700254 -1.17749 -0.294025 1.679688 0.833256 -14.218223 0.093214 1.300581 -34.212082 -0.287566 0.967171 -20.033232 0.964536 1.212844 -0.0 -1e-06 0.0 -3.440391 0.788233 0.501656 -15.928201 -3.167312 2.999707 -6.338832 -2e-06 2e-06 -18.123463 3.648184 -4.905674 -4e-06 -0.0 -2e-06 7.239498 10.518732 11.987307 69.333588 2.449861 8.825018 0.382407 22.173611 0.04485 0.837704 -2.21557 -8.515644 2.243545 -5.255043 -3.180161 14.282912 -0.826596 6.95251 -3e-06 -12.690619 1e-06 16.17873 -17.720375 2.714875 1.665669 -1.955924 -2.878302 4.727805 -4.170592 4.993929 11.020544 3e-06 -2e-06 12.10907 -3.735719 -2.866788 1e-06 0.0 0.0 1.291987 -1.928551 -1.49809 14.800149 0.567468 3.865611 14.242593 -1.341738 -6.660665 19.631998 0.143926 -0.648246 49.68372 -0.336648 -6.417025 0.353029 -1.511152 -0.03194 20.222818 3.684315 2.316633 18.787302 6e-06 -2e-06 10.751641 -0.479868 1.397906 0.0 -0.0 1e-06 3.273811 0.305948 -0.580111 21.486847 11.830391 2.266135 8.16294 3e-06 -1e-06 18.399107 -3.798987 -4.940582 3e-06 0.0 -2e-06 2.308876 12.660878 2.710139 -0.083537 -0.071865 11.984034 -4.470467 6.139889 -10.815171 1.691741 -2.021089 -2.301381 0.0 -0.0 2e-06 -2.03084 -2.176791 -0.844368 -0.065521 -0.050243 14.646911 3.620711 -5.814451 -10.054186 -1.427145 0.977033 -1.767601 0.0 0.0 -1e-06 
